<?xml version="1.0" encoding="utf-8"?>
<!-- Generator: Adobe Illustrator 19.1.0, SVG Export Plug-In . SVG Version: 6.00 Build 0)  -->
<svg version="1.1" id="图层_1" xmlns="http://www.w3.org/2000/svg" xmlns:xlink="http://www.w3.org/1999/xlink" x="0px" y="0px"
	 viewBox="0 0 40 40" style="enable-background:new 0 0 40 40;" xml:space="preserve">
<path d="M14.8,25.1c0.5,0.5,1.3,0.5,1.8,0l8.7-8.7l-1.8-1.8l-8.7,8.7C14.3,23.8,14.3,24.6,14.8,25.1L14.8,25.1z"/>
<path d="M25.8,16.9l-8.7,8.7c-0.3,0.3-0.3,0.7,0,1s0.7,0.3,1,0l8.7-8.7c0,0,0-0.1,0.1-0.1L25.8,16.9L25.8,16.9L25.8,16.9z"/>
<path d="M14.3,22.9l8.7-8.7c0,0,0,0,0.1-0.1l-1-1c0,0-0.1,0-0.1,0.1l-8.7,8.7c-0.3,0.3-0.3,0.7,0,1C13.6,23.1,14,23.1,14.3,22.9
	L14.3,22.9z"/>
<path d="M16.1,26.4c-2.8,0-2.4-2.4-2.4-2.4c-1.2,0-1.4-0.8-1.4-0.8L11.1,29l6-1.4C15.9,27.3,16.1,26.4,16.1,26.4L16.1,26.4z"/>
<path d="M26.2,11.6c-0.7-0.7-1.9-0.7-2.6,0l-0.9,0.9l4.8,4.8l0.9-0.9c0.7-0.7,0.7-1.9,0-2.6L26.2,11.6L26.2,11.6z"/>
<path d="M33.4,6.6C29.8,3,25.1,1,20,1S10.1,3,6.6,6.6C-0.9,14-0.9,26,6.6,33.4C10.1,37,14.9,39,20,39s9.8-2,13.4-5.6
	C37,29.8,39,25.1,39,20S37,10.2,33.4,6.6L33.4,6.6z M32.1,32.1c-3.2,3.2-7.5,5-12.1,5s-8.9-1.8-12.1-5c-6.7-6.7-6.7-17.5,0-24.2
	c3.2-3.2,7.5-5,12.1-5s8.9,1.8,12.1,5s5,7.5,5,12.1S35.3,28.9,32.1,32.1L32.1,32.1z"/>
</svg>
