<?xml version="1.0" encoding="UTF-8"?><!DOCTYPE svg PUBLIC "-//W3C//DTD SVG 1.1//EN" "http://www.w3.org/Graphics/SVG/1.1/DTD/svg11.dtd"><svg xmlns="http://www.w3.org/2000/svg"><symbol id="edit" viewBox="0 0 40 40"><path d="M14.8 25.1c.5.5 1.3.5 1.8 0l8.7-8.7-1.8-1.8-8.7 8.7c-.5.5-.5 1.3 0 1.8zm11-8.2l-8.7 8.7c-.3.3-.3.7 0 1s.7.3 1 0l8.7-8.7s0-.1.1-.1l-1.1-.9zm-11.5 6l8.7-8.7.1-.1-1-1s-.1 0-.1.1l-8.7 8.7c-.3.3-.3.7 0 1 .3.2.7.2 1 0z"/><path d="M16.1 26.4c-2.8 0-2.4-2.4-2.4-2.4-1.2 0-1.4-.8-1.4-.8L11.1 29l6-1.4c-1.2-.3-1-1.2-1-1.2zm10.1-14.8c-.7-.7-1.9-.7-2.6 0l-.9.9 4.8 4.8.9-.9c.7-.7.7-1.9 0-2.6l-2.2-2.2z"/><path d="M33.4 6.6C29.8 3 25.1 1 20 1S10.1 3 6.6 6.6C-.9 14-.9 26 6.6 33.4 10.1 37 14.9 39 20 39s9.8-2 13.4-5.6C37 29.8 39 25.1 39 20s-2-9.8-5.6-13.4zm-1.3 25.5c-3.2 3.2-7.5 5-12.1 5s-8.9-1.8-12.1-5c-6.7-6.7-6.7-17.5 0-24.2 3.2-3.2 7.5-5 12.1-5s8.9 1.8 12.1 5 5 7.5 5 12.1-1.8 8.9-5 12.1z"/></symbol><symbol id="pic" viewBox="0 0 40 40"><path d="M37.1 1H2.9C1.9 1 1 1.9 1 3.1v33.8c0 1.2.9 2.1 1.9 2.1h34.2c1 0 1.9-.9 1.9-2.1V3.1c0-1.2-.9-2.1-1.9-2.1zm-3.8 31.7H6.7V22.1l5.7-6.3 9.5 10.6 5.7-6.3 5.7 6.3v6.3zm-3.8-16.9c-2.1 0-3.8-1.9-3.8-4.2s1.7-4.2 3.8-4.2 3.8 1.9 3.8 4.2-1.7 4.2-3.8 4.2z"/></symbol><symbol id="video" viewBox="0 0 40 40"><path d="M33.9 39H6.1C3.5 39 1 36.4 1 33.6V5.9C1 3.1 3.5 1 6.1 1H34c2.5 0 5 2.6 5 5.4v27.1c0 2.9-2.5 5.5-5.1 5.5zM8.6 6.4H6.1v2.7h2.5V6.4zm0 8.2H6.1v2.7h2.5v-2.7zm0 8.1H6.1v2.7h2.5v-2.7zm0 8.2H6.1v2.7h2.5v-2.7zm7.6-16.3v10.9L26.3 20l-10.1-5.4zm17.7-8.2h-2.5v2.7h2.5V6.4zm0 8.2h-2.5v2.7h2.5v-2.7zm0 8.1h-2.5v2.7h2.5v-2.7zm0 8.2h-2.5v2.7h2.5v-2.7zm0 0"/></symbol></svg>