<?xml version="1.0" encoding="utf-8"?>
<!-- Generator: Adobe Illustrator 21.0.2, SVG Export Plug-In . SVG Version: 6.00 Build 0)  -->
<svg version="1.1" id="图层_1" xmlns="http://www.w3.org/2000/svg" xmlns:xlink="http://www.w3.org/1999/xlink" x="0px" y="0px"
	 viewBox="0 0 144 144" style="enable-background:new 0 0 144 144;" xml:space="preserve">
<style type="text/css">
	.st0{fill:#009949;}
	.st1{fill:#007239;}
</style>
<g>
	<path class="st0" d="M72.9,64L98.8,5.2C90.5,1.8,81.5,0,72,0c-9.3,0-18.1,1.8-26.2,5L72.9,64z"/>
	<path class="st1" d="M32.5,11.8C12.9,24.7,0,46.8,0,72c0,37.5,28.7,68.3,65.4,71.7v-61L32.5,11.8z M51.7,76.8L45,77.9v-7.6H20.3
		v24.8H45v-8.4l6.7,1.3v4.2c0,3.2-0.6,5.4-1.8,6.6c-1.2,1.2-3.5,1.8-6.9,1.8H22.2c-3.4,0-5.6-0.6-6.8-1.7c-1.2-1.1-1.8-3.3-1.8-6.7
		V73.4c0-3.3,0.6-5.5,1.8-6.7c1.2-1.2,3.5-1.7,6.8-1.7H43c3.4,0,5.7,0.6,6.9,1.8c1.2,1.2,1.8,3.4,1.8,6.6V76.8z"/>
	<path class="st1" d="M111.5,11.8L78.8,82.7v61c36.6-3.4,65.2-34.2,65.2-71.7C144,46.8,131.1,24.7,111.5,11.8z M99.1,70.3v24.8h24.7
		v-8.4l6.7,1.3v4.2c0,3.2-0.6,5.4-1.8,6.6c-1.2,1.2-3.5,1.8-6.9,1.8H101c-3.4,0-5.6-0.6-6.8-1.7c-1.2-1.1-1.8-3.3-1.8-6.7V73.4
		c0-3.3,0.6-5.5,1.8-6.7c1.2-1.2,3.5-1.7,6.8-1.7h20.8c3.4,0,5.7,0.6,6.9,1.8c1.2,1.2,1.8,3.4,1.8,6.6v3.3l-6.7,1.1v-7.6H99.1z"/>
</g>
</svg>
