<?xml version="1.0" encoding="utf-8"?>
<!-- Generator: Adobe Illustrator 19.1.0, SVG Export Plug-In . SVG Version: 6.00 Build 0)  -->
<svg version="1.1" id="图层_1" xmlns="http://www.w3.org/2000/svg" xmlns:xlink="http://www.w3.org/1999/xlink" x="0px" y="0px"
	 viewBox="0 0 40 40" style="enable-background:new 0 0 40 40;" xml:space="preserve">
<g>
	<path d="M37.1,1H2.9C1.9,1,1,1.9,1,3.1v33.8C1,38.1,1.9,39,2.9,39h34.2c1,0,1.9-0.9,1.9-2.1V3.1C39,1.9,38.1,1,37.1,1L37.1,1
		L37.1,1z M33.3,32.7H6.7V22.1l5.7-6.3l9.5,10.6l5.7-6.3l5.7,6.3V32.7L33.3,32.7L33.3,32.7z M29.5,15.8c-2.1,0-3.8-1.9-3.8-4.2
		s1.7-4.2,3.8-4.2s3.8,1.9,3.8,4.2S31.6,15.8,29.5,15.8L29.5,15.8L29.5,15.8z"/>
</g>
</svg>
