<?xml version="1.0" encoding="utf-8"?>
<!-- Generator: Adobe Illustrator 19.1.0, SVG Export Plug-In . SVG Version: 6.00 Build 0)  -->
<svg version="1.1" id="图层_1" xmlns="http://www.w3.org/2000/svg" xmlns:xlink="http://www.w3.org/1999/xlink" x="0px" y="0px"
	 viewBox="0 0 40 40" style="enable-background:new 0 0 40 40;" xml:space="preserve">
<g>
	<path d="M33.9,39H6.1C3.5,39,1,36.4,1,33.6V5.9C1,3.1,3.5,1,6.1,1h27.9C36.5,1,39,3.6,39,6.4v27.1C39,36.4,36.5,39,33.9,39L33.9,39
		z M8.6,6.4H6.1v2.7h2.5V6.4L8.6,6.4z M8.6,14.6H6.1v2.7h2.5V14.6L8.6,14.6z M8.6,22.7H6.1v2.7h2.5V22.7L8.6,22.7z M8.6,30.9H6.1
		v2.7h2.5V30.9L8.6,30.9z M16.2,14.6v10.9L26.3,20L16.2,14.6L16.2,14.6z M33.9,6.4h-2.5v2.7h2.5V6.4L33.9,6.4z M33.9,14.6h-2.5v2.7
		h2.5V14.6L33.9,14.6z M33.9,22.7h-2.5v2.7h2.5V22.7L33.9,22.7z M33.9,30.9h-2.5v2.7h2.5V30.9L33.9,30.9z M33.9,30.9"/>
</g>
</svg>
